<?xml version="1.0" standalone="no"?>
<!DOCTYPE svg PUBLIC "-//W3C//DTD SVG 20010904//EN"
 "http://www.w3.org/TR/2001/REC-SVG-20010904/DTD/svg10.dtd">
<svg version="1.0" xmlns="http://www.w3.org/2000/svg"
 width="308.000000pt" height="308.000000pt" viewBox="0 0 308.000000 308.000000"
 preserveAspectRatio="xMidYMid meet">
<metadata>
Created by potrace 1.14, written by Peter Selinger 2001-2017
</metadata>
<g transform="translate(0.000000,308.000000) scale(0.100000,-0.100000)"
fill="#000000" stroke="none">
<path d="M1409 3066 c-2 -2 -32 -7 -66 -10 -35 -4 -68 -9 -75 -11 -7 -2 -25
-6 -39 -9 -103 -17 -292 -86 -404 -146 -236 -129 -465 -350 -596 -575 -98
-168 -170 -374 -197 -565 -4 -25 -6 -124 -6 -220 1 -194 18 -300 75 -472 51
-154 156 -347 252 -466 62 -77 244 -245 324 -300 203 -138 440 -230 673 -260
70 -9 330 -9 395 1 243 34 462 119 670 261 146 99 353 317 429 451 92 163 136
264 171 398 41 156 53 250 53 412 -1 320 -105 634 -296 895 -78 107 -251 275
-359 348 -186 126 -412 219 -599 247 -21 4 -50 9 -64 12 -30 6 -335 15 -341 9z"/>
</g>
</svg>
